<mxfile host="app.diagrams.net" modified="2021-12-21T14:53:22.521Z" agent="5.0 (Macintosh; Intel Mac OS X 10_15_7) AppleWebKit/605.1.15 (KHTML, like Gecko) Version/15.1 Safari/605.1.15" etag="gD9yWQM-4XzLdVnm3M6E" version="16.0.0" type="github">
  <diagram id="lJYFLGQmhrkRlPxedNZU" name="Page-1">
    <mxGraphModel dx="1185" dy="825" grid="1" gridSize="10" guides="1" tooltips="1" connect="1" arrows="1" fold="1" page="1" pageScale="1" pageWidth="827" pageHeight="1169" math="0" shadow="0">
      <root>
        <mxCell id="0" />
        <mxCell id="1" parent="0" />
        <mxCell id="bC0p9lIgmsswuvI5Gfbl-7" value="" style="whiteSpace=wrap;html=1;aspect=fixed;sketch=0;shadow=0;rotation=0;" vertex="1" parent="1">
          <mxGeometry x="360" y="380" width="76" height="76" as="geometry" />
        </mxCell>
        <mxCell id="bC0p9lIgmsswuvI5Gfbl-8" value="" style="endArrow=none;html=1;rounded=0;sketch=0;shadow=0;" edge="1" parent="1">
          <mxGeometry width="50" height="50" relative="1" as="geometry">
            <mxPoint x="369.5" y="422.10526315789457" as="sourcePoint" />
            <mxPoint x="426.5" y="422.10526315789457" as="targetPoint" />
          </mxGeometry>
        </mxCell>
        <mxCell id="bC0p9lIgmsswuvI5Gfbl-11" value="" style="whiteSpace=wrap;html=1;aspect=fixed;sketch=0;shadow=0;rotation=0;" vertex="1" parent="1">
          <mxGeometry x="360" y="380" width="76" height="76" as="geometry" />
        </mxCell>
        <mxCell id="bC0p9lIgmsswuvI5Gfbl-12" value="" style="endArrow=none;html=1;rounded=0;sketch=0;shadow=0;" edge="1" parent="1">
          <mxGeometry width="50" height="50" relative="1" as="geometry">
            <mxPoint x="369.5" y="418.10526315789457" as="sourcePoint" />
            <mxPoint x="426.5" y="418.10526315789457" as="targetPoint" />
          </mxGeometry>
        </mxCell>
      </root>
    </mxGraphModel>
  </diagram>
</mxfile>
